<svg xmlns="http://www.w3.org/2000/svg" width="191" height="46" viewBox="0 0 191 46">
    <g fill="none" fill-rule="evenodd">
        <path fill="#5F2B68" d="M63.382 14.03c1.34 0 2.516.274 3.527.819 1.01.545 1.789 1.26 2.334 2.146v-2.691h5.827v18.979l-.007.4c-.049 1.592-.393 3.043-1.033 4.353-.692 1.42-1.749 2.55-3.169 3.39-1.42.841-3.185 1.261-5.298 1.261-2.817 0-5.1-.664-6.849-1.993-1.75-1.329-2.749-3.13-2.998-5.4h5.758l.056.194c.206.635.62 1.144 1.239 1.526.681.42 1.522.63 2.521.63 1.204 0 2.164-.346 2.88-1.039.715-.693 1.073-1.8 1.073-3.322V30.59l-.177.26c-.55.768-1.275 1.403-2.174 1.904-1 .556-2.17.834-3.51.834-1.567 0-2.987-.403-4.259-1.21-1.272-.806-2.277-1.953-3.016-3.44C55.37 27.45 55 25.728 55 23.775c0-1.953.37-3.669 1.107-5.145.739-1.477 1.744-2.612 3.016-3.407 1.272-.796 2.692-1.193 4.26-1.193zm80.676.41c1.772 0 3.322.38 4.651 1.141 1.33.761 2.351 1.8 3.067 3.118.716 1.318 1.073 2.76 1.073 4.328 0 .795-.022 1.408-.068 1.84h-15.435l.017.347c.086 1.261.415 2.355.988 3.281.625 1.011 1.437 1.778 2.436 2.3 1 .523 2.09.784 3.271.784 1.545 0 2.845-.375 3.902-1.124 1.056-.75 1.755-1.76 2.095-3.033h2.522l-.091.337c-.487 1.664-1.428 3.034-2.823 4.11-1.487 1.147-3.356 1.72-5.605 1.72-1.749 0-3.316-.391-4.702-1.175-1.386-.784-2.47-1.897-3.254-3.34-.784-1.442-1.176-3.128-1.176-5.06 0-1.93.387-3.623 1.159-5.076.772-1.454 1.851-2.567 3.237-3.34 1.386-.772 2.964-1.158 4.736-1.158zm30.67 0c1.75 0 3.334.392 4.754 1.175 1.42.784 2.533 1.897 3.34 3.34.806 1.442 1.209 3.129 1.209 5.06 0 1.908-.409 3.589-1.227 5.043-.817 1.453-1.942 2.572-3.373 3.356-1.431.784-3.021 1.175-4.77 1.175-1.75 0-3.323-.391-4.72-1.175-1.397-.784-2.498-1.897-3.305-3.34-.806-1.442-1.21-3.128-1.21-5.06 0-1.93.41-3.617 1.227-5.06.818-1.442 1.931-2.555 3.34-3.339 1.408-.783 2.987-1.175 4.736-1.175zm-90.932-.136v19.013H77.97V14.304h5.826zm8.727-6.202v13.936l5.759-7.734h7.19l-7.906 9.54 7.973 9.473h-7.223l-5.793-7.973v7.973h-5.827V8.102h5.827zm19.733 6.202v19.013h-5.827V14.304h5.827zm20.895.408v1.977l-9.575 14.652h9.745v1.976H120.85V31.34l9.575-14.652h-9.405v-1.977h12.13zm31.681-.34v2.487h-.647l-.32.006c-1.579.054-2.858.518-3.837 1.391-1.045.931-1.568 2.488-1.568 4.668v10.393h-2.385V14.712h2.385v3.68l.126-.288c.522-1.134 1.28-2.026 2.276-2.676 1.08-.704 2.403-1.056 3.97-1.056zm23.428 12.887c1.673 0 3.029 1.356 3.029 3.03 0 1.672-1.356 3.028-3.03 3.028-1.672 0-3.028-1.356-3.028-3.029 0-1.673 1.356-3.029 3.029-3.029zm-13.565-10.775c-1.227 0-2.363.279-3.408.835-1.045.557-1.88 1.403-2.504 2.539-.625 1.135-.937 2.521-.937 4.157 0 1.635.312 3.02.937 4.157.624 1.135 1.454 1.987 2.487 2.555 1.034.568 2.164.852 3.39.852 1.227 0 2.363-.284 3.408-.852 1.045-.568 1.891-1.42 2.539-2.555.647-1.136.97-2.522.97-4.157 0-1.636-.317-3.022-.953-4.157-.637-1.136-1.477-1.982-2.522-2.539-1.045-.556-2.18-.835-3.407-.835zm-109.61 2.624c-1.158 0-2.14.415-2.946 1.244-.807.829-1.21 1.97-1.21 3.424s.403 2.607 1.21 3.459c.806.852 1.788 1.277 2.947 1.277 1.158 0 2.14-.42 2.947-1.26.807-.84 1.21-1.988 1.21-3.442 0-1.454-.403-2.6-1.21-3.441-.806-.84-1.789-1.261-2.947-1.261zm78.871-2.624c-1.158 0-2.226.25-3.203.75-.977.5-1.772 1.25-2.385 2.249-.613 1-.954 2.203-1.022 3.612h13.084c.023-1.409-.255-2.613-.835-3.612-.579-1-1.368-1.75-2.368-2.25-1-.499-2.09-.749-3.271-.749zM109.322 5.49c1.672 0 3.028 1.356 3.028 3.029 0 1.672-1.356 3.028-3.028 3.028-1.673 0-3.03-1.356-3.03-3.028 0-1.673 1.357-3.03 3.03-3.03zm-28.395 0c1.672 0 3.028 1.356 3.028 3.029 0 1.672-1.356 3.028-3.028 3.028-1.673 0-3.03-1.356-3.03-3.028 0-1.673 1.357-3.03 3.03-3.03z" transform="translate(-1)"/>
        <g>
            <path fill="#BAEA82" fill-rule="nonzero" d="M35.46 15.462c3.301 3.205 5.356 7.67 5.356 12.616 0 .756-.048 1.5-.145 2.233 3.301-3.205 5.356-7.67 5.356-12.617C46.027 7.947 38.072.06 28.267.06c-1.814 0-3.555.276-5.211.768 6.577 1.993 11.522 7.683 12.404 14.634" transform="translate(-1) translate(.95)"/>
            <path fill="#69DBE1" fill-rule="nonzero" d="M5.44 30.31c-.096-.731-.145-1.476-.145-2.232 0-4.946 2.056-9.411 5.356-12.616C11.534 8.512 16.48 2.82 23.068.828 21.424.324 19.671.06 17.858.06 8.04.06.096 7.959.096 17.694.085 22.64 2.14 27.106 5.44 30.311" transform="translate(-1) translate(.95)"/>
            <path fill="#6ABC82" fill-rule="nonzero" d="M10.64 15.462c3.203-3.11 7.58-5.018 12.416-5.018s9.213 1.92 12.404 5.018C34.578 8.512 29.633 2.82 23.056.828c-6.577 1.993-11.534 7.683-12.417 14.634" transform="translate(-1) translate(.95)"/>
            <path fill="#C74272" fill-rule="nonzero" d="M23.056 34.56c-1.644.505-3.397.769-5.21.769-4.837 0-9.214-1.921-12.418-5.018 1.1 8.691 8.572 15.413 17.616 15.413 9.043 0 16.515-6.722 17.615-15.413-3.204 3.109-7.58 5.018-12.404 5.018-1.802 0-3.555-.276-5.199-.769" transform="translate(-1) translate(.95)"/>
            <path fill="#FA8B76" fill-rule="nonzero" d="M35.46 15.462c.097.732.146 1.476.146 2.232 0 7.947-5.284 14.658-12.562 16.866 1.644.505 3.397.769 5.21.769 4.837 0 9.213-1.921 12.405-5.018.097-.732.145-1.477.145-2.233.012-4.946-2.03-9.411-5.344-12.616" transform="translate(-1) translate(.95)"/>
            <path fill="#F89ED2" fill-rule="nonzero" d="M23.056 34.56c-7.266-2.208-12.562-8.919-12.562-16.866 0-.756.049-1.5.145-2.232-3.3 3.205-5.356 7.67-5.356 12.616 0 .756.049 1.5.145 2.233 3.204 3.109 7.581 5.018 12.417 5.018 1.814 0 3.567-.276 5.211-.769" transform="translate(-1) translate(.95)"/>
            <path fill="#5F2B68" d="M23.056 34.56c7.266-2.208 12.562-8.919 12.562-16.866 0-.756-.049-1.5-.145-2.232-3.204-3.11-7.581-5.018-12.417-5.018-4.836 0-9.213 1.92-12.417 5.018-.096.732-.145 1.476-.145 2.232 0 7.935 5.296 14.658 12.562 16.866" transform="translate(-1) translate(.95)"/>
        </g>
    </g>
</svg>
